<svg xmlns="http://www.w3.org/2000/svg" viewBox="0 0 64 64" role="img" aria-labelledby="title desc">
<title>Aurora Diamond</title>
<desc>Diamante dorado para la marca Aurora.</desc>
<defs>
<linearGradient id="goldTop" x1="0" y1="0" x2="1" y2="1">
<stop offset="0%" stop-color="#fff4cc"/>
<stop offset="52%" stop-color="#f4cf74"/>
<stop offset="100%" stop-color="#c88a22"/>
</linearGradient>
<linearGradient id="goldBottom" x1="0" y1="0" x2="0" y2="1">
<stop offset="0%" stop-color="#f3c86b"/>
<stop offset="100%" stop-color="#9e6317"/>
</linearGradient>
</defs>
<g fill="none" stroke-linecap="round" stroke-linejoin="round">
<path d="M14 24 L24 14 H40 L50 24 L32 48 Z" fill="url(#goldBottom)" stroke="#3d2500" stroke-width="1.6"/>
<path d="M14 24 L24 14 H40 L50 24 Z" fill="url(#goldTop)" stroke="#3d2500" stroke-width="1.6"/>
<path d="M24 14 L20 24 L32 48 L44 24 L40 14" stroke="#6c4310" stroke-width="1.2" opacity="0.8"/>
<path d="M14 24 H50" stroke="#3d2500" stroke-width="1.4"/>
<path d="M24 14 L32 24 L40 14" stroke="#6c4310" stroke-width="1.2" opacity="0.8"/>
</g>
<g fill="#f8d67f" opacity="0.95">
<path d="M52 10 L53.4 13.6 L57 15 L53.4 16.4 L52 20 L50.6 16.4 L47 15 L50.6 13.6 Z"/>
<path d="M15 9 L15.9 11.1 L18 12 L15.9 12.9 L15 15 L14.1 12.9 L12 12 L14.1 11.1 Z"/>
<path d="M46 6 L46.7 7.8 L48.5 8.5 L46.7 9.2 L46 11 L45.3 9.2 L43.5 8.5 L45.3 7.8 Z"/>
</g>
</svg>
